<?xml version="1.0" encoding="UTF-8"?> <svg xmlns="http://www.w3.org/2000/svg" width="70" height="55" viewBox="0 0 70 55" fill="none"> <path d="M69.4999 1.63926C69.5087 1.08704 69.0681 0.632264 68.5159 0.623482C67.9637 0.6147 67.5089 1.05524 67.5001 1.60745L69.4999 1.63926ZM0.477061 44.7293C0.00631023 45.0181 -0.141181 45.6339 0.14763 46.1046L4.85408 53.7759C5.14289 54.2467 5.75864 54.3942 6.22939 54.1054C6.70014 53.8166 6.84763 53.2008 6.55882 52.7301L2.37531 45.9111L9.19427 41.7276C9.66502 41.4388 9.81251 40.823 9.5237 40.3523C9.23489 39.8815 8.61914 39.734 8.14839 40.0228L0.477061 44.7293ZM4.06088 47.2764C4.60257 47.3841 5.12897 47.0322 5.23661 46.4905C5.34426 45.9488 4.9924 45.4224 4.45071 45.3148L4.06088 47.2764ZM10.917 46.3198C10.3681 46.259 9.87384 46.6548 9.81309 47.2037C9.75233 47.7526 10.1481 48.2469 10.697 48.3076L10.917 46.3198ZM17.3942 48.7255C17.9464 48.7323 18.3996 48.2901 18.4064 47.7379C18.4132 47.1856 17.9711 46.7324 17.4188 46.7256L17.3942 48.7255ZM23.9316 46.4514C23.382 46.5058 22.9805 46.9954 23.0349 47.545C23.0893 48.0946 23.5789 48.4961 24.1285 48.4417L23.9316 46.4514ZM30.793 47.3714C31.3318 47.25 31.6701 46.7148 31.5487 46.176C31.4272 45.6373 30.892 45.2989 30.3533 45.4204L30.793 47.3714ZM36.5764 43.581C36.0585 43.7727 35.794 44.348 35.9857 44.8659C36.1774 45.3839 36.7527 45.6483 37.2706 45.4566L36.5764 43.581ZM43.4376 42.6758C43.924 42.4142 44.1063 41.8079 43.8447 41.3215C43.5831 40.835 42.9768 40.6528 42.4904 40.9143L43.4376 42.6758ZM47.9742 37.4485C47.5292 37.7755 47.4335 38.4014 47.7606 38.8465C48.0876 39.2915 48.7135 39.3871 49.1586 39.0601L47.9742 37.4485ZM54.3163 34.6891C54.7122 34.304 54.7209 33.6709 54.3357 33.2751C53.9506 32.8792 53.3175 32.8705 52.9217 33.2556L54.3163 34.6891ZM57.2608 28.4259C56.9198 28.8603 56.9955 29.489 57.4299 29.83C57.8643 30.171 58.493 30.0953 58.834 29.6609L57.2608 28.4259ZM62.6505 24.0875C62.9324 23.6126 62.776 22.999 62.3011 22.7171C61.8262 22.4351 61.2127 22.5915 60.9307 23.0664L62.6505 24.0875ZM63.8817 17.2754C63.6634 17.7827 63.8976 18.3709 64.405 18.5892C64.9123 18.8075 65.5005 18.5732 65.7188 18.0659L63.8817 17.2754ZM67.9693 11.6899C68.1167 11.1577 67.8048 10.6067 67.2726 10.4593C66.7403 10.3118 66.1893 10.6238 66.0419 11.156L67.9693 11.6899ZM67.2898 4.80949C67.2279 5.3583 67.6226 5.85338 68.1714 5.91528C68.7203 5.97719 69.2153 5.58248 69.2772 5.03368L67.2898 4.80949ZM0.767057 46.5542C1.87906 46.8205 2.97698 47.061 4.06088 47.2764L4.45071 45.3148C3.3927 45.1045 2.32014 44.8696 1.23294 44.6092L0.767057 46.5542ZM10.697 48.3076C12.9994 48.5625 15.2316 48.6988 17.3942 48.7255L17.4188 46.7256C15.3234 46.6998 13.1565 46.5676 10.917 46.3198L10.697 48.3076ZM24.1285 48.4417C26.4416 48.2128 28.6628 47.8516 30.793 47.3714L30.3533 45.4204C28.3042 45.8822 26.1641 46.2305 23.9316 46.4514L24.1285 48.4417ZM37.2706 45.4566C39.4401 44.6537 41.4953 43.7202 43.4376 42.6758L42.4904 40.9143C40.6288 41.9153 38.6581 42.8105 36.5764 43.581L37.2706 45.4566ZM49.1586 39.0601C51.0088 37.7003 52.7274 36.235 54.3163 34.6891L52.9217 33.2556C51.3966 34.7393 49.7481 36.1449 47.9742 37.4485L49.1586 39.0601ZM58.834 29.6609C60.2511 27.8556 61.5224 25.9876 62.6505 24.0875L60.9307 23.0664C59.8455 24.8944 58.623 26.6907 57.2608 28.4259L58.834 29.6609ZM65.7188 18.0659C66.6383 15.9293 67.3874 13.7904 67.9693 11.6899L66.0419 11.156C65.4845 13.1679 64.7657 15.2211 63.8817 17.2754L65.7188 18.0659ZM69.2772 5.03368C69.4082 3.87232 69.4824 2.73802 69.4999 1.63926L67.5001 1.60745C67.4837 2.63844 67.414 3.70846 67.2898 4.80949L69.2772 5.03368Z" fill="white"></path> </svg> 