<?xml version="1.0" encoding="UTF-8"?> <svg xmlns="http://www.w3.org/2000/svg" width="47" height="44" viewBox="0 0 47 44" fill="none"> <path d="M1.64023 43.6085C1.08795 43.6085 0.640234 43.1608 0.640234 42.6085C0.640234 42.0563 1.08795 41.6085 1.64023 41.6085L1.64023 43.6085ZM38.4413 0.292893C38.8319 -0.097631 39.465 -0.097631 39.8555 0.292893L46.2195 6.65685C46.61 7.04738 46.61 7.68054 46.2195 8.07107C45.829 8.46159 45.1958 8.46159 44.8053 8.07107L39.1484 2.41421L33.4916 8.07107C33.1011 8.46159 32.4679 8.46159 32.0774 8.07107C31.6868 7.68054 31.6868 7.04738 32.0774 6.65685L38.4413 0.292893ZM40.0752 4.20657C40.0495 4.75826 39.5815 5.18471 39.0298 5.15907C38.4782 5.13344 38.0517 4.66542 38.0773 4.11373L40.0752 4.20657ZM37.466 10.2966C37.5508 9.75085 38.0621 9.37727 38.6078 9.46216C39.1535 9.54704 39.5271 10.0583 39.4422 10.604L37.466 10.2966ZM38.0528 16.8865C37.8976 17.4165 37.342 17.7203 36.812 17.5651C36.282 17.4098 35.9782 16.8543 36.1335 16.3242L38.0528 16.8865ZM33.9603 22.0838C34.196 21.5843 34.7919 21.3704 35.2914 21.6061C35.7909 21.8418 36.0048 22.4377 35.7691 22.9372L33.9603 22.0838ZM32.502 28.5357C32.1817 28.9856 31.5573 29.0907 31.1074 28.7704C30.6574 28.4502 30.5523 27.8258 30.8726 27.3758L32.502 28.5357ZM26.8742 31.9979C27.2737 31.6166 27.9067 31.6313 28.288 32.0308C28.6693 32.4303 28.6546 33.0633 28.255 33.4447L26.8742 31.9979ZM23.1506 37.4638C22.6866 37.7633 22.0676 37.63 21.7681 37.166C21.4686 36.7019 21.602 36.083 22.066 35.7835L23.1506 37.4638ZM16.6399 38.6321C17.1494 38.4189 17.7352 38.6592 17.9484 39.1687C18.1615 39.6782 17.9213 40.264 17.4118 40.4771L16.6399 38.6321ZM11.2565 42.475C10.7193 42.6028 10.1801 42.2708 10.0523 41.7336C9.92444 41.1963 10.2564 40.6571 10.7937 40.5293L11.2565 42.475ZM4.71364 41.4861C5.2642 41.4425 5.74585 41.8535 5.78943 42.4041C5.83301 42.9546 5.42202 43.4363 4.87146 43.4799L4.71364 41.4861ZM40.1484 1C40.1484 2.09407 40.1237 3.16276 40.0752 4.20657L38.0773 4.11373C38.1244 3.10164 38.1484 2.06391 38.1484 1L40.1484 1ZM39.4422 10.604C39.0959 12.8301 38.6283 14.9222 38.0528 16.8865L36.1335 16.3242C36.6834 14.4472 37.1325 12.4405 37.466 10.2966L39.4422 10.604ZM35.7691 22.9372C34.8062 24.978 33.7088 26.8403 32.502 28.5357L30.8726 27.3758C32.01 25.778 33.0476 24.0184 33.9603 22.0838L35.7691 22.9372ZM28.255 33.4447C26.6445 34.9819 24.93 36.3153 23.1506 37.4638L22.066 35.7835C23.7444 34.7001 25.3589 33.4442 26.8742 31.9979L28.255 33.4447ZM17.4118 40.4771C15.373 41.3301 13.3049 41.9877 11.2565 42.475L10.7937 40.5293C12.7432 40.0655 14.7074 39.4405 16.6399 38.6321L17.4118 40.4771ZM4.87146 43.4799C3.76994 43.5671 2.68999 43.6085 1.64023 43.6085L1.64023 41.6085C2.63745 41.6085 3.66475 41.5691 4.71364 41.4861L4.87146 43.4799Z" fill="#40417A"></path> </svg> 